<svg id="Ebene_1" data-name="Ebene 1" xmlns="http://www.w3.org/2000/svg" viewBox="0 0 17.01 17.01"><defs><style>.cls-1***REMOVED***fill:#0a5ba7;***REMOVED***</style></defs><title>cpu_icon</title><path class="cls-1" d="M1.15,11H0v4.4A1.65,1.65,0,0,0,1.64,17H6V15.86H1.15Z"/><rect class="cls-1" x="7.03" width="0.99" height="1.15"/><path class="cls-1" d="M1.15,1.15H6V0H1.64A1.65,1.65,0,0,0,0,1.64V6H1.15Z"/><rect class="cls-1" y="7.03" width="1.15" height="0.99"/><path class="cls-1" d="M15.86,15.86H11V17h4.4A1.65,1.65,0,0,0,17,15.37V11H15.86Z"/><rect class="cls-1" x="9" y="15.86" width="0.99" height="1.15"/><rect class="cls-1" x="7.03" y="15.86" width="0.99" height="1.15"/><rect class="cls-1" y="9" width="1.15" height="0.99"/><path class="cls-1" d="M15.37,0H11V1.15h4.89V6H17V1.64A1.65,1.65,0,0,0,15.37,0Z"/><rect class="cls-1" x="15.86" y="7.03" width="1.15" height="0.99"/><rect class="cls-1" x="9" width="0.99" height="1.15"/><rect class="cls-1" x="15.86" y="9" width="1.15" height="0.99"/><rect class="cls-1" x="8.11" y="7.81" width="0.76" height="0.48"/><path class="cls-1" d="M2.14,14.87H14.87V2.14H2.14ZM10,7h.82V9.16h.8V7h.82v3H10ZM7.28,7h2.4V9.11H8.11V10H7.28ZM4.58,7H6.93v.82H5.4V9.16H6.93V10H4.58Z"/></svg>