<?xml version="1.0" encoding="utf-8"?>
<!-- Generator: Adobe Illustrator 25.1.0, SVG Export Plug-In . SVG Version: 6.00 Build 0)  -->
<svg version="1.1" id="Ebene_1" xmlns="http://www.w3.org/2000/svg" xmlns:xlink="http://www.w3.org/1999/xlink" x="0px" y="0px"
	 viewBox="0 0 22 18.4" style="enable-background:new 0 0 22 18.4;" xml:space="preserve">
<style type="text/css">
	.st0{fill:#0A5BA7;}
</style>
<path id="ICON_x5F_BLACK" class="st0" d="M22,10.1c0,4.6-3.7,8.3-8.3,8.3c-1.2,0-2.3-0.3-3.3-0.7c4.3-1,7.6-4.8,7.6-9.4
	c0-2.4-0.8-4.5-2.2-6.2C19.3,3,22,6.3,22,10.1z M8.3,5.1c-1.8,0-3.2,1.4-3.2,3.2c0,1.8,1.4,3.2,3.2,3.2c1.8,0,3.2-1.4,3.2-3.2
	C11.5,6.5,10.1,5.1,8.3,5.1z M16.6,8.3c0,4.6-3.7,8.3-8.3,8.3C3.7,16.6,0,12.9,0,8.3C0,3.7,3.7,0,8.3,0C12.9,0,16.6,3.7,16.6,8.3z
	 M8.3,2.8c-3,0-5.5,2.5-5.5,5.5c0,3,2.5,5.5,5.5,5.5c3,0,5.5-2.5,5.5-5.5C13.8,5.3,11.3,2.8,8.3,2.8z"/>
</svg>
