<svg id="Ebene_1" data-name="Ebene 1" xmlns="http://www.w3.org/2000/svg" viewBox="0 0 17.01 17.01"><defs><style>.cls-1{fill:#0a5ba7;}</style></defs><title>gpu_icon</title><path class="cls-1" d="M15.62,2.55H2.14V14.46H15.62A1.39,1.39,0,0,0,17,13.07V3.94A1.39,1.39,0,0,0,15.62,2.55ZM6.8,11.69a.45.45,0,0,1-.45.45H3.74a.45.45,0,0,1-.45-.45V11a.46.46,0,0,1,.45-.46H6.35A.46.46,0,0,1,6.8,11Zm0-2.82a.46.46,0,0,1-.45.46H3.74a.46.46,0,0,1-.45-.46V8.13a.45.45,0,0,1,.45-.45H6.35a.45.45,0,0,1,.45.45ZM6.8,6a.46.46,0,0,1-.45.46H3.74A.46.46,0,0,1,3.29,6V5.3a.45.45,0,0,1,.45-.45H6.35a.45.45,0,0,1,.45.45Zm5.91,5.6A3.14,3.14,0,1,1,15.85,8.5,3.14,3.14,0,0,1,12.71,11.64Z"/><circle class="cls-1" cx="12.71" cy="8.5" r="1.8"/><polygon class="cls-1" points="1.39 1.62 0.02 1.62 0.02 2.12 1.39 2.12 1.39 14.71 1.89 14.71 1.89 2.12 1.89 1.62 1.39 1.62"/><path class="cls-1" d="M.79,8.56V9.62A.18.18,0,0,0,1,9.8h.18V8.38H1A.18.18,0,0,0,.79,8.56Z"/><path class="cls-1" d="M.93,7.68h.22V4.84H.93A.14.14,0,0,0,.79,5V7.54A.14.14,0,0,0,.93,7.68Z"/></svg>