<?xml version="1.0" encoding="utf-8"?>
<!-- Generator: Adobe Illustrator 23.0.3, SVG Export Plug-In . SVG Version: 6.00 Build 0)  -->
<svg version="1.1" id="Ebene_1" xmlns="http://www.w3.org/2000/svg" xmlns:xlink="http://www.w3.org/1999/xlink" x="0px" y="0px"
	 viewBox="0 0 29.4 22.7" style="enable-background:new 0 0 29.4 22.7;" xml:space="preserve">
<style type="text/css">
	.st0***REMOVED***fill:#0A5BA7;***REMOVED***
</style>
<title>gpu_icon</title>
<path class="st0" d="M27,1.6H3.7v20.6H27c1.3,0,2.4-1.1,2.4-2.4V4C29.4,2.7,28.3,1.6,27,1.6z M11.7,17.4c0,0.4-0.3,0.8-0.8,0.8H6.4
	c-0.4,0-0.8-0.3-0.8-0.8v-1.2c0-0.4,0.3-0.8,0.8-0.8H11c0.4,0,0.8,0.4,0.8,0.8V17.4z M11.7,12.6c0,0.4-0.3,0.8-0.8,0.8H6.4
	c-0.4,0-0.8-0.4-0.8-0.8v-1.3c0-0.4,0.3-0.8,0.8-0.8H11c0.4,0,0.8,0.3,0.8,0.8L11.7,12.6z M11.7,7.6c0,0.4-0.3,0.8-0.8,0.8H6.4
	C6,8.4,5.7,8,5.7,7.6V6.4c0-0.4,0.3-0.8,0.8-0.8H11c0.4,0,0.8,0.3,0.8,0.8L11.7,7.6z M22,17.3c-3,0-5.4-2.4-5.4-5.4
	c0-3,2.4-5.4,5.4-5.4c3,0,5.4,2.4,5.4,5.4c0,0,0,0,0,0.1C27.4,14.9,25,17.4,22,17.3L22,17.3L22,17.3z"/>
<circle class="st0" cx="22" cy="11.9" r="3.1"/>
<polygon class="st0" points="2.4,0 0,0 0,0.9 2.4,0.9 2.4,22.7 3.2,22.7 3.2,0.9 3.2,0 "/>
<path class="st0" d="M1.3,12v1.8c0,0.2,0.1,0.3,0.3,0.3c0,0,0,0,0.1,0H2v-2.5H1.7C1.5,11.7,1.4,11.8,1.3,12C1.3,12,1.3,12,1.3,12z"
	/>
<path class="st0" d="M1.6,10.5H2V5.6H1.6c-0.1,0-0.2,0.1-0.2,0.2c0,0,0,0,0,0v4.4C1.3,10.4,1.4,10.5,1.6,10.5z"/>
</svg>
