<svg id="Ebene_1" data-name="Ebene 1" xmlns="http://www.w3.org/2000/svg" viewBox="0 0 15.37 17.01"><defs><style>.cls-1***REMOVED***fill:#0a5ba7;***REMOVED***</style></defs><title>storage_icon</title><path class="cls-1" d="M8.5,15.19c-3.38,0-6.3-1.26-7.66-3.09a1.72,1.72,0,0,0,0,.32C.82,15,4.27,17,8.5,17s7.69-2.06,7.69-4.59c0-.11,0-.21,0-.32C14.81,13.93,11.89,15.19,8.5,15.19Z" transform="translate(-0.82)"/><path class="cls-1" d="M15.92,9.81a3.5,3.5,0,0,1-.27.28,3.45,3.45,0,0,1-.28.26A10.58,10.58,0,0,1,8.5,12.58a10.57,10.57,0,0,1-6.86-2.23l-.29-.26-.26-.28C1,9.71.92,9.6.84,9.5a1.56,1.56,0,0,0,0,.31,1.62,1.62,0,0,0,0,.31,2.29,2.29,0,0,0,.11.52,3.8,3.8,0,0,0,.18.47C2.08,13,5,14.4,8.5,14.4s6.43-1.39,7.37-3.29a2.72,2.72,0,0,0,.19-.47,3,3,0,0,0,.11-.52c0-.1,0-.21,0-.31a3,3,0,0,0,0-.31C16.09,9.6,16,9.71,15.92,9.81Z" transform="translate(-0.82)"/><path class="cls-1" d="M15.92,7.2a2.37,2.37,0,0,1-.27.28l-.28.27a7,7,0,0,1-1,.75c-.12.08-.25.15-.38.22a3.42,3.42,0,0,1-.43.21A11.84,11.84,0,0,1,8.5,10a11.83,11.83,0,0,1-5-1.05,3.42,3.42,0,0,1-.43-.21c-.13-.07-.26-.14-.38-.22a7,7,0,0,1-1-.75l-.29-.27a3.45,3.45,0,0,1-.26-.28C1,7.1.92,7,.84,6.89a1.62,1.62,0,0,0,0,.31,1.62,1.62,0,0,0,0,.31A2.5,2.5,0,0,0,1,8a3.66,3.66,0,0,0,.18.46,3.37,3.37,0,0,0,.51.76,2.27,2.27,0,0,0,.26.28l.28.27a9.89,9.89,0,0,0,6.32,2,9.9,9.9,0,0,0,6.33-2l.28-.27a3.45,3.45,0,0,0,.26-.28,3.69,3.69,0,0,0,.5-.76A2.62,2.62,0,0,0,16.06,8a3.33,3.33,0,0,0,.11-.53c0-.1,0-.21,0-.31s0-.21,0-.31C16.09,7,16,7.1,15.92,7.2Z" transform="translate(-0.82)"/><path class="cls-1" d="M8.5,0C4.27,0,.82,2.06.82,4.59a1.56,1.56,0,0,0,0,.31A2.38,2.38,0,0,0,1,5.43a4.52,4.52,0,0,0,.18.47,3.56,3.56,0,0,0,.51.75,3.4,3.4,0,0,0,.26.29l.28.26a6.71,6.71,0,0,0,1.32.87L4,8.29a4.71,4.71,0,0,0,.52.21,11.52,11.52,0,0,0,4,.68,11.54,11.54,0,0,0,4-.68,4.71,4.71,0,0,0,.52-.21l.46-.22a6.71,6.71,0,0,0,1.32-.87l.28-.26c.09-.1.18-.19.26-.29a3.92,3.92,0,0,0,.5-.75,3.08,3.08,0,0,0,.19-.47,3.12,3.12,0,0,0,.11-.53,3,3,0,0,0,0-.31C16.19,2.06,12.74,0,8.5,0Z" transform="translate(-0.82)"/></svg>