<?xml version="1.0" encoding="utf-8"?>
<!-- Generator: Adobe Illustrator 23.0.3, SVG Export Plug-In . SVG Version: 6.00 Build 0)  -->
<svg version="1.1" id="Ebene_1" xmlns="http://www.w3.org/2000/svg" xmlns:xlink="http://www.w3.org/1999/xlink" x="0px" y="0px"
	 viewBox="0 0 20.5 22.7" style="enable-background:new 0 0 20.5 22.7;" xml:space="preserve">
<style type="text/css">
	.st0***REMOVED***fill:#0A5BA7;***REMOVED***
</style>
<title>storage_icon</title>
<path class="st0" d="M10.3,20.3c-4.5,0-8.4-1.7-10.2-4.1c0,0.1,0,0.3,0,0.4c0,3.4,4.6,6.1,10.2,6.1s10.3-2.7,10.3-6.1
	c0-0.1,0-0.3,0-0.4C18.7,18.6,14.8,20.3,10.3,20.3z"/>
<path class="st0" d="M20.2,13.1c-0.1,0.1-0.2,0.3-0.4,0.4c-0.1,0.1-0.2,0.2-0.4,0.3c-2.6,2-5.9,3.1-9.2,3c-3.3,0.1-6.5-0.9-9.2-3
	l-0.4-0.3l-0.3-0.4C0.3,13,0.1,12.8,0,12.7c0,0.1,0,0.3,0,0.4c0,0.1,0,0.3,0,0.4c0,0.2,0.1,0.5,0.1,0.7c0.1,0.2,0.1,0.4,0.2,0.6
	c1.3,2.5,5.2,4.4,9.8,4.4s8.6-1.9,9.8-4.4c0.1-0.2,0.2-0.4,0.3-0.6c0.1-0.2,0.1-0.5,0.1-0.7c0-0.1,0-0.3,0-0.4c0-0.1,0-0.3,0-0.4
	C20.4,12.8,20.3,13,20.2,13.1z"/>
<path class="st0" d="M20.2,9.6C20,9.7,19.9,9.9,19.8,10l-0.4,0.4c-0.4,0.4-0.9,0.7-1.3,1c-0.2,0.1-0.3,0.2-0.5,0.3
	c-0.2,0.1-0.4,0.2-0.6,0.3c-2.1,1-4.4,1.5-6.7,1.4c-2.3,0-4.6-0.5-6.7-1.4c-0.2-0.1-0.4-0.2-0.6-0.3c-0.2-0.1-0.3-0.2-0.5-0.3
	c-0.5-0.3-0.9-0.6-1.3-1L0.8,10C0.7,9.9,0.5,9.8,0.4,9.6C0.3,9.5,0.1,9.3,0,9.2c0,0.1,0,0.3,0,0.4C0,9.7,0,9.9,0,10
	c0,0.2,0.1,0.4,0.2,0.7c0.1,0.2,0.1,0.4,0.2,0.6c0.2,0.4,0.4,0.7,0.7,1c0.1,0.1,0.2,0.3,0.3,0.4L1.9,13c2.4,1.8,5.4,2.8,8.4,2.7
	c3,0.1,6-0.8,8.4-2.7l0.4-0.4c0.1-0.1,0.2-0.2,0.3-0.4c0.3-0.3,0.5-0.6,0.7-1c0.1-0.2,0.1-0.4,0.2-0.6c0.1-0.2,0.1-0.5,0.1-0.7
	c0-0.1,0-0.3,0-0.4c0-0.1,0-0.3,0-0.4C20.4,9.3,20.3,9.5,20.2,9.6z"/>
<path class="st0" d="M10.3,0C4.6,0,0,2.7,0,6.1c0,0.1,0,0.3,0,0.4C0.1,6.8,0.1,7,0.3,7.2c0.1,0.2,0.1,0.4,0.2,0.6
	c0.2,0.4,0.4,0.7,0.7,1C1.3,9,1.4,9.1,1.5,9.3l0.4,0.3c0.5,0.5,1.1,0.8,1.8,1.2l0.6,0.3c0.2,0.1,0.5,0.2,0.7,0.3
	c1.7,0.6,3.5,0.9,5.3,0.9c1.8,0,3.6-0.3,5.3-0.9c0.2-0.1,0.5-0.2,0.7-0.3l0.6-0.3c0.6-0.3,1.2-0.7,1.8-1.2l0.4-0.3
	c0.1-0.1,0.2-0.3,0.3-0.4c0.3-0.3,0.5-0.6,0.7-1c0.1-0.2,0.2-0.4,0.3-0.6c0.1-0.2,0.1-0.5,0.1-0.7c0-0.1,0-0.3,0-0.4
	C20.5,2.7,15.9,0,10.3,0z"/>
</svg>
