<?xml version="1.0" encoding="utf-8"?><svg id="Ebene_1" data-name="Ebene 1" xmlns="http://www.w3.org/2000/svg" viewBox="0 0 131.97 131.97"><defs><style>.cls-1***REMOVED***fill:#125ca7;***REMOVED***</style></defs><title>easytouse</title><path class="cls-1" d="M102.26,132H29.7A29.74,29.74,0,0,1,0,102.26V29.7A29.73,29.73,0,0,1,29.7,0h72.56A29.74,29.74,0,0,1,132,29.7v72.56A29.75,29.75,0,0,1,102.26,132ZM29.7,6A23.72,23.72,0,0,0,6,29.7v72.56A23.73,23.73,0,0,0,29.7,126h72.56A23.74,23.74,0,0,0,126,102.26V29.7A23.73,23.73,0,0,0,102.26,6Z"/><path class="cls-1" d="M107,65.16a9.23,9.23,0,0,0-13.07,0L79.41,79.68V33.86a6.62,6.62,0,1,0-13.24,0v23H64.58a7.15,7.15,0,0,0-13.21,0H49.69a7.14,7.14,0,0,0-13.2,0H35a6.53,6.53,0,0,0-6.17-4.42h0A6.56,6.56,0,0,0,22.24,59V96.09a17.38,17.38,0,0,0,17.38,17.37H66.44a12.94,12.94,0,0,0,3.6-.52l.19,0,.11,0a9.19,9.19,0,0,0,4.51-2.46l.53-.53c.15-.15.3-.29.44-.44L107,78.24A9.23,9.23,0,0,0,107,65.16Z"/><path class="cls-1" d="M64.75,46.72V43.19a12.41,12.41,0,1,1,16.09,0v3.53a15.27,15.27,0,1,0-16.09,0Z"/></svg>