<?xml version="1.0" encoding="utf-8"?><svg id="Ebene_1" data-name="Ebene 1" xmlns="http://www.w3.org/2000/svg" viewBox="0 0 118.36 126.96"><defs><style>.cls-1{fill:none;stroke:#125ca7;stroke-linecap:round;stroke-linejoin:round;stroke-width:5px;}.cls-2{fill:#125ca7;}</style></defs><title>flatlearning</title><line class="cls-1" x1="2.5" y1="2.5" x2="2.5" y2="124.46"/><line class="cls-1" x1="115.86" y1="124.46" x2="2.5" y2="124.46"/><line class="cls-1" x1="2.5" y1="124.46" x2="111.74" y2="93.26"/><polygon class="cls-2" points="106.3 101.42 110.67 93.56 102.81 89.2 108 87.72 115.86 92.08 111.49 99.94 106.3 101.42"/><path class="cls-2" d="M55.6,61.55H34.84a2.23,2.23,0,0,0,0,4.45H55.6a2.23,2.23,0,0,0,0-4.45Z" transform="translate(-6.81 -2.5)"/><path class="cls-2" d="M55.6,55.64H34.84a2.22,2.22,0,0,0,0,4.44H55.6a2.22,2.22,0,1,0,0-4.44Z" transform="translate(-6.81 -2.5)"/><path class="cls-2" d="M55.6,67.09H34.84a2.22,2.22,0,0,0,0,4.44H55.6a2.22,2.22,0,0,0,0-4.44Z" transform="translate(-6.81 -2.5)"/><path class="cls-2" d="M45.22,5c-10.46,0-19,10.31-19,23a25.25,25.25,0,0,0,6.37,17.18V47a7.14,7.14,0,0,0,7.13,7.13H50.69A7.14,7.14,0,0,0,57.82,47V45.16A25.25,25.25,0,0,0,64.19,28C64.19,15.31,55.68,5,45.22,5ZM54,42.69a2.25,2.25,0,0,0-.66,1.73,1.15,1.15,0,0,0,0,.26V47a2.7,2.7,0,0,1-2.69,2.69H39.75A2.7,2.7,0,0,1,37.06,47V44.68l0-.26a2.22,2.22,0,0,0-.67-1.73A20.5,20.5,0,0,1,30.69,28c0-10.22,6.52-18.53,14.53-18.53S59.74,17.76,59.74,28A20.46,20.46,0,0,1,54,42.69Z" transform="translate(-6.81 -2.5)"/><path class="cls-2" d="M45.22,26a3.61,3.61,0,0,0-1.67,6.81v10.9a1.67,1.67,0,1,0,3.34,0V32.81A3.61,3.61,0,0,0,45.22,26Z" transform="translate(-6.81 -2.5)"/></svg>