<?xml version="1.0" encoding="utf-8"?><svg id="Ebene_1" data-name="Ebene 1" xmlns="http://www.w3.org/2000/svg" viewBox="0 0 133.14 123.69"><defs><style>.cls-1{fill:#125ca7;}</style></defs><title>remote</title><path class="cls-1" d="M117.64,0H15.5A15.51,15.51,0,0,0,0,15.5V72a15.52,15.52,0,0,0,15.5,15.5H64.07v21.67h-32a7.26,7.26,0,1,0,0,14.51H101a7.26,7.26,0,1,0,0-14.51h-32V87.51h48.57A15.52,15.52,0,0,0,133.14,72V15.5A15.51,15.51,0,0,0,117.64,0ZM103.3,116.43a2.26,2.26,0,0,1-2.26,2.26H32.1a2.26,2.26,0,1,1,0-4.51H101A2.26,2.26,0,0,1,103.3,116.43ZM126.14,72a8.52,8.52,0,0,1-8.5,8.5H15.5A8.51,8.51,0,0,1,7,72V15.5A8.51,8.51,0,0,1,15.5,7H117.64a8.51,8.51,0,0,1,8.5,8.5Z"/><path class="cls-1" d="M40.93,45,23,49.83a1.51,1.51,0,0,0-1.06,1.06,1.5,1.5,0,0,0,.39,1.45l5.17,5.17-8.89,8.9a2,2,0,0,0,0,2.81,1.94,1.94,0,0,0,1.4.58,2,2,0,0,0,1.41-.58l8.89-8.89,5.17,5.17a1.53,1.53,0,0,0,1.06.44,1.74,1.74,0,0,0,.39,0A1.51,1.51,0,0,0,38,64.82l4.81-18a1.5,1.5,0,0,0-.39-1.45A1.48,1.48,0,0,0,40.93,45Zm-5.2,16.52-9.48-9.48,12.94-3.47Z"/></svg>