<?xml version="1.0" encoding="iso-8859-1"?>
<!-- Generator: Adobe Illustrator 23.0.2, SVG Export Plug-In . SVG Version: 6.00 Build 0)  -->
<svg version="1.1" id="Ebene_1" xmlns="http://www.w3.org/2000/svg" xmlns:xlink="http://www.w3.org/1999/xlink" x="0px" y="0px"
	 viewBox="0 0 348.975 271.35" style="enable-background:new 0 0 348.975 271.35;" xml:space="preserve">
<g>
	<g>
		<g>
			<path style="fill:#0A5BA7;" d="M121.793,98.589h15.523l27.158,74.447h-17.618l-5.769-16.675h-23.173l-5.662,16.675H94.635
				L121.793,98.589z M138.258,144.517l-8.704-26.326l-8.913,26.326H138.258z"/>
		</g>
		<g>
			<path style="fill:#0A5BA7;" d="M171.812,173.036V98.589h31.775c3.563,0,6.831,0.734,9.805,2.202
				c2.97,1.468,5.521,3.388,7.655,5.76c2.129,2.381,3.806,5.069,5.031,8.081c1.225,3.004,1.835,6.042,1.835,9.122
				c0,3.285-0.576,6.426-1.728,9.438c-1.156,3.004-2.765,5.692-4.826,8.073c-2.061,2.372-4.561,4.267-7.497,5.658
				c-2.936,1.399-6.187,2.099-9.75,2.099h-15.1v24.013H171.812z M189.012,134.029h14.051c2.027,0,3.776-0.87,5.244-2.62
				c1.468-1.749,2.202-4.301,2.202-7.655c0-1.749-0.23-3.251-0.683-4.514c-0.457-1.254-1.067-2.304-1.835-3.14
				c-0.772-0.845-1.643-1.451-2.624-1.835c-0.977-0.384-1.954-0.58-2.936-0.58h-13.419V134.029z"/>
		</g>
		<g>
			<path style="fill:#0A5BA7;" d="M237.141,173.036V98.589h17.199v74.447H237.141z"/>
		</g>
	</g>
	<g>
		<polygon style="fill:#0A5BA7;" points="19.997,72.237 115.091,17.322 115.091,51.737 224.317,51.737 224.317,73.589 
			234.317,73.589 234.317,41.737 125.091,41.737 125.091,0 0,72.237 86.56,122.223 90.039,112.684 		"/>
		<polygon style="fill:#0A5BA7;" points="348.975,199.113 279.34,158.901 279.34,170.448 328.979,199.113 233.884,254.028 
			233.884,219.613 124.658,219.613 124.658,198.036 114.658,198.036 114.658,229.613 223.884,229.613 223.884,271.35 		"/>
	</g>
</g>
</svg>
