<?xml version="1.0" encoding="iso-8859-1"?>
<!-- Generator: Adobe Illustrator 23.0.2, SVG Export Plug-In . SVG Version: 6.00 Build 0)  -->
<svg version="1.1" id="Ebene_1" xmlns="http://www.w3.org/2000/svg" xmlns:xlink="http://www.w3.org/1999/xlink" x="0px" y="0px"
	 viewBox="0 0 119.852 119.852" style="enable-background:new 0 0 119.852 119.852;" xml:space="preserve">
<g>
	<path style="fill:#0A5BA7;" d="M76.39,43.462c-6.057-6.057-14.925-8.296-23.143-5.842c-0.325,0.097-0.612,0.272-0.842,0.502
		c-0.332,0.332-0.545,0.779-0.581,1.27c-0.06,0.828,0.398,1.608,1.152,1.958c0.218,0.101,0.389,0.215,0.522,0.348l9.606,9.606
		c0.721,0.721,0.721,1.894,0,2.615l-9.184,9.184c-0.721,0.721-1.894,0.721-2.615,0l-9.606-9.606
		c-0.133-0.133-0.248-0.304-0.35-0.523c-0.35-0.753-1.13-1.211-1.958-1.15c-0.49,0.036-0.936,0.249-1.269,0.581
		c-0.23,0.23-0.405,0.517-0.502,0.842c-2.453,8.218-0.214,17.085,5.843,23.142c5.681,5.681,13.895,8.009,21.689,6.218L98.8,116.256
		c2.281,2.281,5.992,2.281,8.272,0l9.184-9.184c2.281-2.281,2.281-5.992,0-8.273L82.608,65.151
		C84.399,57.358,82.071,49.144,76.39,43.462z M107.988,107.988c-3.024,3.024-7.926,3.024-10.95,0c-3.024-3.024-3.024-7.926,0-10.95
		c3.024-3.024,7.926-3.024,10.95,0C111.011,100.061,111.011,104.964,107.988,107.988z"/>
	<path style="fill:#0A5BA7;" d="M92.265,12.96l-3.884,3.884c-5.596-3.704-11.756-6.196-18.112-7.489V3.849
		C70.269,1.732,68.537,0,66.42,0L53.432,0c-2.117,0-3.849,1.732-3.849,3.849v5.505c-6.355,1.294-12.515,3.785-18.112,7.489
		l-3.884-3.884c-1.497-1.497-3.946-1.497-5.443,0l-9.184,9.184c-1.497,1.497-1.497,3.946,0,5.443l3.884,3.884
		c-3.704,5.596-6.195,11.756-7.489,18.112H3.849C1.732,49.583,0,51.315,0,53.432V66.42c0,2.117,1.732,3.849,3.849,3.849h5.505
		c1.294,6.355,3.785,12.515,7.489,18.112l-3.884,3.884c-1.497,1.497-1.497,3.946,0,5.443l9.184,9.184
		c1.497,1.497,3.946,1.497,5.443,0l3.884-3.884c5.596,3.705,11.756,6.196,18.112,7.489v5.505c0,2.117,1.732,3.849,3.849,3.849
		l12.989,0c2.117,0,3.849-1.732,3.849-3.849v-5.505c5.046-1.027,9.963-2.822,14.578-5.366l-14.78-14.78
		c-6.641,2.207-13.856,2.193-20.485-0.059c-1.297-0.441-2.57-0.971-3.813-1.582c-3.077-1.514-5.966-3.542-8.526-6.102
		s-4.588-5.449-6.102-8.526C30.53,72.839,30,71.567,29.56,70.269c-2.275-6.696-2.275-13.991,0-20.687
		c0.441-1.297,0.971-2.57,1.582-3.813c1.514-3.077,3.542-5.966,6.102-8.526s5.449-4.588,8.526-6.102
		c1.243-0.612,2.516-1.141,3.813-1.582c6.696-2.275,13.991-2.275,20.687,0c1.297,0.441,2.57,0.971,3.813,1.582
		c3.077,1.514,5.966,3.542,8.526,6.102s4.588,5.449,6.102,8.526c0.612,1.243,1.141,2.516,1.582,3.813
		c2.252,6.629,2.267,13.844,0.059,20.485l14.78,14.78c2.544-4.615,4.339-9.532,5.366-14.578h5.505c2.117,0,3.849-1.732,3.849-3.849
		V53.432c0-2.117-1.732-3.849-3.849-3.849h-5.505c-1.294-6.356-3.785-12.515-7.489-18.112l3.884-3.884
		c1.497-1.497,1.497-3.946,0-5.443l-9.184-9.184C96.211,11.463,93.761,11.463,92.265,12.96z"/>
</g>
</svg>
