<?xml version="1.0" encoding="UTF-8" standalone="no"?>
<svg
   xmlns:dc="http://purl.org/dc/elements/1.1/"
   xmlns:cc="http://creativecommons.org/ns#"
   xmlns:rdf="http://www.w3.org/1999/02/22-rdf-syntax-ns#"
   xmlns:svg="http://www.w3.org/2000/svg"
   xmlns="http://www.w3.org/2000/svg"
   xml:space="preserve"
   enable-background="new 0 0 354.332 91.896"
   viewBox="0 0 76.49289 76.643216"
   height="76.643219"
   width="76.492889"
   y="0px"
   x="0px"
   id="Ebene_1"
   version="1.1"><metadata
   id="metadata183"><rdf:RDF><cc:Work
       rdf:about=""><dc:format>image/svg+xml</dc:format><dc:type
         rdf:resource="http://purl.org/dc/dcmitype/StillImage" /><dc:title></dc:title></cc:Work></rdf:RDF></metadata><defs
   id="defs181" />
<g
   transform="translate(-91.502492,-11.942699)"
   id="g176">
	
		
	
		
	
		
	
		
	
		
	
		
	
		
	
		
	
		
	
	
		
	
		
	
		
	
		
	
		
	
		
	
		
	
		
	
		
	
	
	
	
	
	
	
	
	
	
	
	
	
	
	
	
	
	
	
	
	
	
	
	
	
	
	
	
	
	
	
	
	
	
	
	
	
	
	
	
	
	
	
	
	
	
	
	
	
	
	
	
	
	
	
	
	
	
	
	
	
	
	
	
	
	
	
	
<rect
   id="rect2"
   height="2.0009165"
   width="14.283404"
   transform="rotate(157.01959)"
   y="-106.7824"
   x="-132.59779"
   style="fill:#929497;stroke-width:0.99995828" /><rect
   id="rect4"
   height="2.0009718"
   width="26.988619"
   transform="rotate(-134.05191)"
   y="36.876587"
   x="-124.54572"
   style="fill:#929497;stroke-width:0.99998587" /><rect
   id="rect6"
   height="14.37547"
   width="1.9999262"
   transform="rotate(-145.84589)"
   y="49.497826"
   x="-124.9616"
   style="fill:#929497;stroke-width:0.9999631" /><rect
   id="rect8"
   height="2.0009878"
   width="26.988838"
   transform="rotate(-85.715989)"
   y="152.35085"
   x="-67.458954"
   style="fill:#929497;stroke-width:0.99999398" /><rect
   id="rect10"
   height="2.0019205"
   width="20.34119"
   transform="rotate(-96.206048)"
   y="103.58239"
   x="-93.631401"
   style="fill:#929497;stroke-width:0.99996018" /><rect
   id="rect12"
   height="2.0009549"
   width="26.989393"
   transform="rotate(-110.8491)"
   y="81.701645"
   x="-94.01123"
   style="fill:#929497;stroke-width:0.99997753" /><rect
   id="rect14"
   height="2.0021079"
   width="26.991453"
   transform="rotate(-123.97768)"
   y="58.150455"
   x="-141.76964"
   style="fill:#929497;stroke-width:1.00005388" /><rect
   id="rect16"
   height="2.0000305"
   width="20.344309"
   transform="rotate(-170.29372)"
   y="-41.722408"
   x="-123.90372"
   style="fill:#929497;stroke-width:1.00001526" /><rect
   id="rect18"
   height="14.627334"
   width="2.0009086"
   transform="rotate(-131.91524)"
   y="28.065538"
   x="-120.84519"
   style="fill:#929497;stroke-width:0.9999544" /><line
   id="line20"
   y2="20.036308"
   x2="111.98406"
   y1="29.845308"
   x1="129.58005"
   style="fill:none" /><rect
   id="rect22"
   height="2.0010738"
   width="20.148745"
   transform="rotate(-150.86415)"
   y="36.021698"
   x="-127.71538"
   style="fill:#929497;stroke-width:1.00003695" /><rect
   id="rect24"
   height="14.374648"
   width="2.0009511"
   transform="rotate(161.59042)"
   y="-69.089546"
   x="-114.37117"
   style="fill:#929497;stroke-width:0.99997556" /><rect
   id="rect26"
   height="21.928442"
   width="2.0009489"
   transform="rotate(-113.59132)"
   y="105.39222"
   x="-80.715851"
   style="fill:#929497;stroke-width:0.99997449" /><rect
   id="rect28"
   height="18.491373"
   width="2.0029321"
   transform="rotate(-148.6196)"
   y="36.466518"
   x="-155.2765"
   style="fill:#929497;stroke-width:0.99996608" /><rect
   id="rect30"
   height="2.0009973"
   width="14.284981"
   transform="rotate(-152.3997)"
   y="23.076639"
   x="-172.62444"
   style="fill:#929497;stroke-width:0.99999869" /><rect
   id="rect32"
   height="2.0009422"
   width="19.177446"
   transform="rotate(-112.73137)"
   y="117.77097"
   x="-125.24253"
   style="fill:#929497;stroke-width:0.99997115" /><rect
   id="rect34"
   height="20.270878"
   width="4.0021729"
   transform="rotate(179.46716)"
   y="-51.323654"
   x="-131.3"
   style="fill:#58595b;stroke-width:1.00004327" /><rect
   id="rect36"
   height="20.827833"
   width="4.0029678"
   transform="rotate(-120.88416)"
   y="64.818199"
   x="-111.62425"
   style="fill:#58595b;stroke-width:0.99999207" /><rect
   id="rect38"
   height="4.0019259"
   width="20.514622"
   transform="rotate(-178.0458)"
   y="-47.66526"
   x="-151.91864"
   style="fill:#58595b;stroke-width:0.99998158" /><path
   id="path40"
   d="m 139.34906,48.109308 c 1.107,5.291 -2.282,10.475 -7.57,11.584 -5.29,1.106 -10.478,-2.283 -11.584,-7.573 -1.108,-5.29 2.281,-10.476 7.57,-11.582 5.29,-1.109 10.476,2.282 11.584,7.571"
   style="fill:#eb008b" /><path
   id="path42"
   d="m 134.46106,28.823308 c 0.564,2.696 -1.163,5.339 -3.858,5.903 -2.695,0.563 -5.339,-1.163 -5.903,-3.858 -0.563,-2.696 1.164,-5.339 3.859,-5.903 2.695,-0.564 5.339,1.162 5.902,3.858"
   style="fill:#58595b" /><path
   id="path44"
   d="m 116.78006,59.786308 c 0.562,2.696 -1.163,5.339 -3.859,5.903 -2.695,0.563 -5.338,-1.163 -5.903,-3.858 -0.562,-2.696 1.163,-5.338 3.859,-5.904 2.696,-0.563 5.338,1.163 5.903,3.859"
   style="fill:#58595b" /><path
   id="path46"
   d="m 154.69606,49.890308 c 0.562,2.695 -1.164,5.339 -3.86,5.902 -2.696,0.564 -5.338,-1.164 -5.903,-3.858 -0.562,-2.696 1.163,-5.339 3.858,-5.904 2.697,-0.565 5.339,1.164 5.905,3.86"
   style="fill:#58595b" /><path
   id="path48"
   d="m 163.93806,32.467308 c 0.402,1.926 -0.83,3.813 -2.756,4.217 -1.926,0.402 -3.814,-0.831 -4.217,-2.757 -0.404,-1.926 0.831,-3.812 2.756,-4.216 1.928,-0.402 3.814,0.83 4.217,2.756"
   style="fill:#929497" /><path
   id="path50"
   d="m 167.23306,57.636308 c 0.401,1.927 -0.832,3.813 -2.757,4.218 -1.927,0.402 -3.813,-0.831 -4.218,-2.758 -0.404,-1.926 0.832,-3.812 2.757,-4.216 1.927,-0.402 3.813,0.831 4.218,2.756"
   style="fill:#929497" /><path
   id="path52"
   d="m 161.67606,69.701308 c 0.402,1.925 -0.83,3.812 -2.757,4.216 -1.925,0.403 -3.813,-0.831 -4.216,-2.756 -0.403,-1.927 0.83,-3.812 2.756,-4.216 1.926,-0.404 3.815,0.831 4.217,2.756"
   style="fill:#929497" /><path
   id="path54"
   d="m 153.18306,20.583307 c 0.403,1.926001 -0.83,3.813001 -2.756,4.216001 -1.926,0.403 -3.813,-0.831 -4.218,-2.756 -0.405,-1.925001 0.832,-3.812001 2.758,-4.216001 1.925,-0.404 3.814,0.832 4.216,2.756"
   style="fill:#929497" /><path
   id="path56"
   d="m 128.16106,14.775307 c 0.402,1.925 -0.83,3.812 -2.756,4.215 -1.926,0.404 -3.814,-0.831 -4.218,-2.756 -0.404,-1.925 0.832,-3.811999 2.757,-4.214999 1.926,-0.404 3.814,0.83 4.217,2.755999"
   style="fill:#929497" /><path
   id="path58"
   d="m 115.46806,19.306307 c 0.403,1.926 -0.83,3.812001 -2.756,4.216001 -1.926,0.402 -3.812,-0.831 -4.218,-2.756001 -0.403,-1.927 0.832,-3.813 2.758,-4.218 1.925,-0.401 3.815,0.832 4.216,2.758"
   style="fill:#929497" /><path
   id="path60"
   d="m 99.056056,56.910308 c 0.403,1.925 -0.83,3.814 -2.755,4.216 -1.926,0.403 -3.813,-0.83 -4.218,-2.755 -0.403,-1.926 0.831,-3.812 2.757,-4.217 1.926,-0.404 3.814,0.831 4.216,2.756"
   style="fill:#929497" /><path
   id="path62"
   d="m 104.96506,69.605308 c 0.402,1.925 -0.831,3.812 -2.757,4.217 -1.926,0.403 -3.812004,-0.832 -4.217004,-2.757 -0.403,-1.927 0.831,-3.813 2.757004,-4.216 1.926,-0.404 3.814,0.83 4.217,2.756"
   style="fill:#929497" /><path
   id="path64"
   d="m 117.40806,80.539308 c 0.401,1.925 -0.831,3.812 -2.757,4.216 -1.927,0.404 -3.813,-0.831 -4.219,-2.756 -0.401,-1.927 0.832,-3.812 2.759,-4.216 1.926,-0.403 3.814,0.831 4.217,2.756"
   style="fill:#929497" /><path
   id="path164"
   d="m 103.69706,30.660308 c 0.402,1.925 -0.831,3.812 -2.756,4.215 -1.927004,0.404 -3.814004,-0.83 -4.219004,-2.755 -0.402,-1.926 0.831,-3.812 2.758,-4.216 1.926004,-0.404 3.812004,0.831 4.217004,2.756"
   style="fill:#929497" /><path
   id="path166"
   d="m 132.22506,84.292308 c 0.402,1.926 -0.83,3.813 -2.757,4.217 -1.926,0.404 -3.812,-0.83 -4.217,-2.757 -0.403,-1.925 0.831,-3.812 2.757,-4.216 1.926,-0.403 3.815,0.832 4.217,2.756"
   style="fill:#929497" /><path
   id="path168"
   d="m 151.32806,79.295308 c 0.403,1.925 -0.83,3.812 -2.756,4.216 -1.926,0.404 -3.814,-0.83 -4.218,-2.756 -0.403,-1.927 0.832,-3.812 2.758,-4.217 1.926,-0.402 3.813,0.831 4.216,2.757"
   style="fill:#929497" /><path
   id="path170"
   d="m 142.11306,15.654307 c 0.402,1.926 -0.83,3.812 -2.756,4.216 -1.927,0.403 -3.813,-0.831 -4.218,-2.756 -0.402,-1.925 0.831,-3.813 2.758,-4.215999 1.926,-0.404 3.813,0.829999 4.216,2.755999"
   style="fill:#929497" /><path
   id="path172"
   d="m 98.552056,42.828308 c 0.403,1.926 -0.83,3.813 -2.756,4.216 -1.926,0.403 -3.812,-0.831 -4.217,-2.756 -0.404,-1.926 0.831,-3.812 2.757,-4.216 1.926,-0.404 3.814,0.831 4.216,2.756"
   style="fill:#929497" /><path
   id="path174"
   d="m 167.91906,44.480308 c 0.403,1.925 -0.83,3.812 -2.755,4.216 -1.928,0.403 -3.815,-0.83 -4.219,-2.756 -0.403,-1.927 0.832,-3.813 2.758,-4.216 1.926,-0.404 3.813,0.829 4.216,2.756"
   style="fill:#929497" /></g>
</svg>