<?xml version="1.0" encoding="UTF-8" standalone="no"?>
<!-- Generator: Adobe Illustrator 13.0.0, SVG Export Plug-In . SVG Version: 6.00 Build 14948)  -->

<svg
   xmlns:dc="http://purl.org/dc/elements/1.1/"
   xmlns:cc="http://creativecommons.org/ns#"
   xmlns:rdf="http://www.w3.org/1999/02/22-rdf-syntax-ns#"
   xmlns:svg="http://www.w3.org/2000/svg"
   xmlns="http://www.w3.org/2000/svg"
   xmlns:sodipodi="http://sodipodi.sourceforge.net/DTD/sodipodi-0.dtd"
   xmlns:inkscape="http://www.inkscape.org/namespaces/inkscape"
   version="1.1"
   id="Ebene_1"
   x="0px"
   y="0px"
   width="353.655"
   height="76.643219"
   viewBox="0 0 353.655 76.643216"
   enable-background="new 0 0 354.332 91.896"
   xml:space="preserve"
   sodipodi:docname="denbi-logo-color.svg"
   inkscape:version="0.92.4 5da689c313, 2019-01-14"><metadata
   id="metadata183"><rdf:RDF><cc:Work
       rdf:about=""><dc:format>image/svg+xml</dc:format><dc:type
         rdf:resource="http://purl.org/dc/dcmitype/StillImage" /></cc:Work></rdf:RDF></metadata><defs
   id="defs181" /><sodipodi:namedview
   pagecolor="#ffffff"
   bordercolor="#666666"
   borderopacity="1"
   objecttolerance="10"
   gridtolerance="10"
   guidetolerance="10"
   inkscape:pageopacity="0"
   inkscape:pageshadow="2"
   inkscape:window-width="1600"
   inkscape:window-height="853"
   id="namedview179"
   showgrid="false"
   inkscape:zoom="1.0809072"
   inkscape:cx="201.34394"
   inkscape:cy="116.64982"
   inkscape:window-x="1920"
   inkscape:window-y="737"
   inkscape:window-maximized="1"
   inkscape:current-layer="g176" />
<g
   id="g176"
   transform="translate(24.177944,-11.942699)">
	
		
	
		
	
		
	
		
	
		
	
		
	
		
	
		
	
		
	
	
		
	
		
	
		
	
		
	
		
	
		
	
		
	
		
	
		
	
	
	
	
	
	
	
	
	
	
	
	
	
	
	
	
	
	
	
	
	
	
	
	
	
	
	
	
	
	
	
	
	
	
	
	
	
	
	
	
	
	
	
	
	
	
	
	
	
	
	
	
	
	
	
	
	
	
	
	
	
	
	
	
	
	
	
	
<rect
   style="fill:#929497;stroke-width:0.99995828"
   x="-132.59779"
   y="-106.7824"
   transform="rotate(157.01959)"
   width="14.283404"
   height="2.0009165"
   id="rect2" /><rect
   style="fill:#929497;stroke-width:0.99998587"
   x="-124.54572"
   y="36.876587"
   transform="rotate(-134.05191)"
   width="26.988619"
   height="2.0009718"
   id="rect4" /><rect
   style="fill:#929497;stroke-width:0.9999631"
   x="-124.9616"
   y="49.497826"
   transform="rotate(-145.84589)"
   width="1.9999262"
   height="14.37547"
   id="rect6" /><rect
   style="fill:#929497;stroke-width:0.99999398"
   x="-67.458954"
   y="152.35085"
   transform="rotate(-85.715989)"
   width="26.988838"
   height="2.0009878"
   id="rect8" /><rect
   style="fill:#929497;stroke-width:0.99996018"
   x="-93.631401"
   y="103.58239"
   transform="rotate(-96.206048)"
   width="20.34119"
   height="2.0019205"
   id="rect10" /><rect
   style="fill:#929497;stroke-width:0.99997753"
   x="-94.01123"
   y="81.701645"
   transform="rotate(-110.8491)"
   width="26.989393"
   height="2.0009549"
   id="rect12" /><rect
   style="fill:#929497;stroke-width:1.00005388"
   x="-141.76964"
   y="58.150455"
   transform="rotate(-123.97768)"
   width="26.991453"
   height="2.0021079"
   id="rect14" /><rect
   style="fill:#929497;stroke-width:1.00001526"
   x="-123.90372"
   y="-41.722408"
   transform="rotate(-170.29372)"
   width="20.344309"
   height="2.0000305"
   id="rect16" /><rect
   style="fill:#929497;stroke-width:0.9999544"
   x="-120.84519"
   y="28.065538"
   transform="rotate(-131.91524)"
   width="2.0009086"
   height="14.627334"
   id="rect18" /><line
   style="fill:none"
   x1="129.58005"
   y1="29.845308"
   x2="111.98406"
   y2="20.036308"
   id="line20" /><rect
   style="fill:#929497;stroke-width:1.00003695"
   x="-127.71538"
   y="36.021698"
   transform="rotate(-150.86415)"
   width="20.148745"
   height="2.0010738"
   id="rect22" /><rect
   style="fill:#929497;stroke-width:0.99997556"
   x="-114.37117"
   y="-69.089546"
   transform="rotate(161.59042)"
   width="2.0009511"
   height="14.374648"
   id="rect24" /><rect
   style="fill:#929497;stroke-width:0.99997449"
   x="-80.715851"
   y="105.39222"
   transform="rotate(-113.59132)"
   width="2.0009489"
   height="21.928442"
   id="rect26" /><rect
   style="fill:#929497;stroke-width:0.99996608"
   x="-155.2765"
   y="36.466518"
   transform="rotate(-148.6196)"
   width="2.0029321"
   height="18.491373"
   id="rect28" /><rect
   style="fill:#929497;stroke-width:0.99999869"
   x="-172.62444"
   y="23.076639"
   transform="rotate(-152.3997)"
   width="14.284981"
   height="2.0009973"
   id="rect30" /><rect
   style="fill:#929497;stroke-width:0.99997115"
   x="-125.24253"
   y="117.77097"
   transform="rotate(-112.73137)"
   width="19.177446"
   height="2.0009422"
   id="rect32" /><rect
   style="fill:#58595b;stroke-width:1.00004327"
   x="-131.3"
   y="-51.323654"
   transform="rotate(179.46716)"
   width="4.0021729"
   height="20.270878"
   id="rect34" /><rect
   style="fill:#58595b;stroke-width:0.99999207"
   x="-111.62425"
   y="64.818199"
   transform="rotate(-120.88416)"
   width="4.0029678"
   height="20.827833"
   id="rect36" /><rect
   style="fill:#58595b;stroke-width:0.99998158"
   x="-151.91864"
   y="-47.66526"
   transform="rotate(-178.0458)"
   width="20.514622"
   height="4.0019259"
   id="rect38" /><path
   inkscape:connector-curvature="0"
   style="fill:#eb008b"
   d="m 139.34906,48.109308 c 1.107,5.291 -2.282,10.475 -7.57,11.584 -5.29,1.106 -10.478,-2.283 -11.584,-7.573 -1.108,-5.29 2.281,-10.476 7.57,-11.582 5.29,-1.109 10.476,2.282 11.584,7.571"
   id="path40" /><path
   inkscape:connector-curvature="0"
   style="fill:#58595b"
   d="m 134.46106,28.823308 c 0.564,2.696 -1.163,5.339 -3.858,5.903 -2.695,0.563 -5.339,-1.163 -5.903,-3.858 -0.563,-2.696 1.164,-5.339 3.859,-5.903 2.695,-0.564 5.339,1.162 5.902,3.858"
   id="path42" /><path
   inkscape:connector-curvature="0"
   style="fill:#58595b"
   d="m 116.78006,59.786308 c 0.562,2.696 -1.163,5.339 -3.859,5.903 -2.695,0.563 -5.338,-1.163 -5.903,-3.858 -0.562,-2.696 1.163,-5.338 3.859,-5.904 2.696,-0.563 5.338,1.163 5.903,3.859"
   id="path44" /><path
   inkscape:connector-curvature="0"
   style="fill:#58595b"
   d="m 154.69606,49.890308 c 0.562,2.695 -1.164,5.339 -3.86,5.902 -2.696,0.564 -5.338,-1.164 -5.903,-3.858 -0.562,-2.696 1.163,-5.339 3.858,-5.904 2.697,-0.565 5.339,1.164 5.905,3.86"
   id="path46" /><path
   inkscape:connector-curvature="0"
   style="fill:#929497"
   d="m 163.93806,32.467308 c 0.402,1.926 -0.83,3.813 -2.756,4.217 -1.926,0.402 -3.814,-0.831 -4.217,-2.757 -0.404,-1.926 0.831,-3.812 2.756,-4.216 1.928,-0.402 3.814,0.83 4.217,2.756"
   id="path48" /><path
   inkscape:connector-curvature="0"
   style="fill:#929497"
   d="m 167.23306,57.636308 c 0.401,1.927 -0.832,3.813 -2.757,4.218 -1.927,0.402 -3.813,-0.831 -4.218,-2.758 -0.404,-1.926 0.832,-3.812 2.757,-4.216 1.927,-0.402 3.813,0.831 4.218,2.756"
   id="path50" /><path
   inkscape:connector-curvature="0"
   style="fill:#929497"
   d="m 161.67606,69.701308 c 0.402,1.925 -0.83,3.812 -2.757,4.216 -1.925,0.403 -3.813,-0.831 -4.216,-2.756 -0.403,-1.927 0.83,-3.812 2.756,-4.216 1.926,-0.404 3.815,0.831 4.217,2.756"
   id="path52" /><path
   inkscape:connector-curvature="0"
   style="fill:#929497"
   d="m 153.18306,20.583307 c 0.403,1.926001 -0.83,3.813001 -2.756,4.216001 -1.926,0.403 -3.813,-0.831 -4.218,-2.756 -0.405,-1.925001 0.832,-3.812001 2.758,-4.216001 1.925,-0.404 3.814,0.832 4.216,2.756"
   id="path54" /><path
   inkscape:connector-curvature="0"
   style="fill:#929497"
   d="m 128.16106,14.775307 c 0.402,1.925 -0.83,3.812 -2.756,4.215 -1.926,0.404 -3.814,-0.831 -4.218,-2.756 -0.404,-1.925 0.832,-3.811999 2.757,-4.214999 1.926,-0.404 3.814,0.83 4.217,2.755999"
   id="path56" /><path
   inkscape:connector-curvature="0"
   style="fill:#929497"
   d="m 115.46806,19.306307 c 0.403,1.926 -0.83,3.812001 -2.756,4.216001 -1.926,0.402 -3.812,-0.831 -4.218,-2.756001 -0.403,-1.927 0.832,-3.813 2.758,-4.218 1.925,-0.401 3.815,0.832 4.216,2.758"
   id="path58" /><path
   inkscape:connector-curvature="0"
   style="fill:#929497"
   d="m 99.056056,56.910308 c 0.403,1.925 -0.83,3.814 -2.755,4.216 -1.926,0.403 -3.813,-0.83 -4.218,-2.755 -0.403,-1.926 0.831,-3.812 2.757,-4.217 1.926,-0.404 3.814,0.831 4.216,2.756"
   id="path60" /><path
   inkscape:connector-curvature="0"
   style="fill:#929497"
   d="m 104.96506,69.605308 c 0.402,1.925 -0.831,3.812 -2.757,4.217 -1.926,0.403 -3.812004,-0.832 -4.217004,-2.757 -0.403,-1.927 0.831,-3.813 2.757004,-4.216 1.926,-0.404 3.814,0.83 4.217,2.756"
   id="path62" /><path
   inkscape:connector-curvature="0"
   style="fill:#929497"
   d="m 117.40806,80.539308 c 0.401,1.925 -0.831,3.812 -2.757,4.216 -1.927,0.404 -3.813,-0.831 -4.219,-2.756 -0.401,-1.927 0.832,-3.812 2.759,-4.216 1.926,-0.403 3.814,0.831 4.217,2.756"
   id="path64" /><path
   inkscape:connector-curvature="0"
   style="fill:#005aa9"
   d="m -1.8839435,33.269308 c 10.663,0 14.1239995,5.959 14.1239995,5.959 h 0.193 c 0,0 -0.101,-1.25 -0.101,-2.884 v -8.647 c 0,-1.443 -0.769,-2.115 -2.111,-2.115 H 6.3800565 V 15.203307 H 18.006056 c 4.518,0 6.535,2.017 6.535,6.534 v 49.296001 c 0,1.347 0.768,2.115 2.117,2.115 h 3.742 v 10.283 h -11.239 c -4.422,0 -6.053,-2.114 -6.053,-4.998 v -1.824 h -0.193 c 0,0 -4.0359995,7.975 -15.2789995,7.975 -13.2620005,-10e-4 -21.8140005,-10.473 -21.8140005,-25.657 0,-15.566 9.319,-25.658 22.2940005,-25.658 m 14.5119995,25.561 c 0,-7.589 -3.9399995,-15.085 -12.11199955,-15.085 -6.72199995,0 -12.30000045,5.475 -12.30000045,15.182 0,9.32 4.9030005,15.373 12.11100045,15.373 6.34100005,0 12.30099955,-4.608 12.30099955,-15.47"
   id="path66" /><path
   inkscape:connector-curvature="0"
   style="fill:#00adee"
   d="m 225.24906,15.202307 c -4.611,0 -6.534,2.019 -6.534,6.534 v 31.230001 c 0,3.941 0.674,9.611 0.674,9.611 h -0.193 c 0,0 -2.979,-5.67 -5.672,-9.611 l -25.849,-37.764001 h -11.339 v 55.447001 c 0,1.308 -0.739,2.015 -2.012,2.055 v -0.005 h -8.346 c -2.601,4.101 -5.873,7.729 -9.668,10.732 h 13.777 4.236 8.064 c 4.614,0 6.531,-1.924 6.531,-6.535 v -31.134 c 0,-3.941 -0.667,-9.61 -0.667,-9.61 h 0.188 c 0,0 2.979,5.766 5.672,9.61 l 25.942,37.67 h 11.244 v -55.448 c 0,-1.343 0.769,-2.114 2.117,-2.114 h 4.13 V 15.202307 Z"
   id="path68" /><path
   inkscape:connector-curvature="0"
   style="fill:#00adee"
   d="m 250.23506,25.869308 h -6.246 V 15.202307 h 29.504 c 12.299,0 21.139,6.344 21.139,17.588001 0,7.59 -4.129,12.491 -8.264,14.605 v 0.189 c 7.402,2.211 10.957,9.13 10.957,16.048 0,13.646 -10.859,19.798 -23.545,19.798 h -17.012 c -4.517,0 -6.533,-1.923 -6.533,-6.534 z m 23.352,17.202 c 5.284,0 8.265,-3.842 8.265,-8.743 0,-4.901 -2.881,-8.458 -8.453,-8.458 h -10.574 v 17.201 z m -8.647,29.694 h 9.803 c 6.146,0 9.607,-4.134 9.607,-9.897 0,-5.67 -3.555,-9.801 -9.607,-9.801 h -11.92 v 17.583 c 0,1.345 0.769,2.115 2.117,2.115"
   id="path70" /><polygon
   transform="translate(-23.843944,12.379308)"
   style="fill:#00adee"
   points="353.321,13.49 346.493,13.49 346.493,60.386 353.321,60.386 353.321,71.053 326.752,71.053 326.752,60.386 334.579,60.386 334.579,13.49 326.752,13.49 326.752,2.823 353.321,2.823 "
   id="polygon72" /><path
   inkscape:connector-curvature="0"
   style="fill:#005aa9"
   d="m 103.18406,83.558308 -0.187,-0.138 c -3.789004,-3.002 -7.058004,-6.625 -9.654004,-10.721 h -34.932 -0.001 -1.298 c -5.758,-0.63 -8.17,-3.946 -9.028,-11.658 h 33.827 c 0,0 0.287,-3.076 0.287,-4.516 0,-12.976 -7.685,-23.256 -21.714,-23.256 -14.704,0 -24.895,10.571 -24.895,25.658 0,13.935 7.078,24.649 23.314,24.649 0.803,0 1.58,-0.01 2.349,-0.021 z m -42.699004,-40.871 c 4.998,0 9.032,4.037 9.221,9.897 h -21.235 c 1.345,-6.149 5.767,-9.897 12.014,-9.897"
   id="path74" /><path
   inkscape:connector-curvature="0"
   style="fill:#929497"
   d="m 103.69706,30.660308 c 0.402,1.925 -0.831,3.812 -2.756,4.215 -1.927004,0.404 -3.814004,-0.83 -4.219004,-2.755 -0.402,-1.926 0.831,-3.812 2.758,-4.216 1.926004,-0.404 3.812004,0.831 4.217004,2.756"
   id="path164" /><path
   inkscape:connector-curvature="0"
   style="fill:#929497"
   d="m 132.22506,84.292308 c 0.402,1.926 -0.83,3.813 -2.757,4.217 -1.926,0.404 -3.812,-0.83 -4.217,-2.757 -0.403,-1.925 0.831,-3.812 2.757,-4.216 1.926,-0.403 3.815,0.832 4.217,2.756"
   id="path166" /><path
   inkscape:connector-curvature="0"
   style="fill:#929497"
   d="m 151.32806,79.295308 c 0.403,1.925 -0.83,3.812 -2.756,4.216 -1.926,0.404 -3.814,-0.83 -4.218,-2.756 -0.403,-1.927 0.832,-3.812 2.758,-4.217 1.926,-0.402 3.813,0.831 4.216,2.757"
   id="path168" /><path
   inkscape:connector-curvature="0"
   style="fill:#929497"
   d="m 142.11306,15.654307 c 0.402,1.926 -0.83,3.812 -2.756,4.216 -1.927,0.403 -3.813,-0.831 -4.218,-2.756 -0.402,-1.925 0.831,-3.813 2.758,-4.215999 1.926,-0.404 3.813,0.829999 4.216,2.755999"
   id="path170" /><path
   inkscape:connector-curvature="0"
   style="fill:#929497"
   d="m 98.552056,42.828308 c 0.403,1.926 -0.83,3.813 -2.756,4.216 -1.926,0.403 -3.812,-0.831 -4.217,-2.756 -0.404,-1.926 0.831,-3.812 2.757,-4.216 1.926,-0.404 3.814,0.831 4.216,2.756"
   id="path172" /><path
   inkscape:connector-curvature="0"
   style="fill:#929497"
   d="m 167.91906,44.480308 c 0.403,1.925 -0.83,3.812 -2.755,4.216 -1.928,0.403 -3.815,-0.83 -4.219,-2.756 -0.403,-1.927 0.832,-3.813 2.758,-4.216 1.926,-0.404 3.813,0.829 4.216,2.756"
   id="path174" /></g>
</svg>