<?xml version="1.0" encoding="UTF-8" standalone="no"?>
<!-- Generator: Adobe Illustrator 13.0.0, SVG Export Plug-In . SVG Version: 6.00 Build 14948)  -->

<svg
   xmlns:dc="http://purl.org/dc/elements/1.1/"
   xmlns:cc="http://creativecommons.org/ns#"
   xmlns:rdf="http://www.w3.org/1999/02/22-rdf-syntax-ns#"
   xmlns:svg="http://www.w3.org/2000/svg"
   xmlns="http://www.w3.org/2000/svg"
   xmlns:xlink="http://www.w3.org/1999/xlink"
   xmlns:sodipodi="http://sodipodi.sourceforge.net/DTD/sodipodi-0.dtd"
   xmlns:inkscape="http://www.inkscape.org/namespaces/inkscape"
   version="1.1"
   id="Ebene_1"
   x="0px"
   y="0px"
   width="76.492882"
   height="76.643219"
   viewBox="0 0 76.492882 76.643216"
   enable-background="new 0 0 354.332 91.896"
   xml:space="preserve"
   sodipodi:docname="denbi-logo-minimized.svg"
   inkscape:version="0.92.4 5da689c313, 2019-01-14"><metadata
   id="metadata183"><rdf:RDF><cc:Work
       rdf:about=""><dc:format>image/svg+xml</dc:format><dc:type
         rdf:resource="http://purl.org/dc/dcmitype/StillImage" /><dc:title></dc:title></cc:Work></rdf:RDF></metadata><defs
   id="defs181"><clipPath
     clipPathUnits="userSpaceOnUse"
     id="clipPath1158"><use
       x="0"
       y="0"
       xlink:href="#g1154"
       id="use1160"
       width="100%"
       height="100%" /></clipPath></defs><sodipodi:namedview
   pagecolor="#ffffff"
   bordercolor="#666666"
   borderopacity="1"
   objecttolerance="10"
   gridtolerance="10"
   guidetolerance="10"
   inkscape:pageopacity="0"
   inkscape:pageshadow="2"
   inkscape:window-width="1920"
   inkscape:window-height="1177"
   id="namedview179"
   showgrid="false"
   inkscape:zoom="1.0809072"
   inkscape:cx="51.661106"
   inkscape:cy="-105.3859"
   inkscape:window-x="0"
   inkscape:window-y="140"
   inkscape:window-maximized="1"
   inkscape:current-layer="g176" />
<g
   id="g176"
   transform="translate(-125.50489,-11.942697)">
	
		
	
		
	
		
	
		
	
		
	
		
	
		
	
		
	
		
	
	
		
	
		
	
		
	
		
	
		
	
		
	
		
	
		
	
		
	
	
	
	
	
	
	
	
	
	
	
	
	
	
	
	
	
	
	
	
	
	
	
	
	
	
	
	
	
	
	
	
	
	
	
	
	
	
	
	
	
	
	
	
	
	
	
	
	
	
	
	
	
	
	
	
	
	
	
	
	
	
	
	
	
	
	
	
<g
   id="g1156"
   clip-path="url(#clipPath1158)"
   transform="translate(-6.4760418)"><g
     inkscape:label="Clip"
     id="g1154"><rect
       id="rect2"
       height="2.0009165"
       width="14.283404"
       transform="rotate(157.01959)"
       y="-122.58586"
       x="-169.86382"
       style="fill:#929497;stroke-width:0.99995828" /><rect
       id="rect4"
       height="2.0009718"
       width="26.988619"
       transform="rotate(-134.05191)"
       y="65.968864"
       x="-152.69078"
       style="fill:#929497;stroke-width:0.99998587" /><rect
       id="rect6"
       height="14.37547"
       width="1.9999262"
       transform="rotate(-145.84589)"
       y="72.223267"
       x="-158.45876"
       style="fill:#929497;stroke-width:0.9999631" /><rect
       id="rect8"
       height="2.0009878"
       width="26.988838"
       transform="rotate(-85.715989)"
       y="192.71619"
       x="-64.435204"
       style="fill:#929497;stroke-width:0.99999398" /><rect
       id="rect10"
       height="2.0019205"
       width="20.34119"
       transform="rotate(-96.206048)"
       y="143.82362"
       x="-98.007294"
       style="fill:#929497;stroke-width:0.99996018" /><rect
       id="rect12"
       height="2.0009549"
       width="26.989393"
       transform="rotate(-110.8491)"
       y="119.5296"
       x="-108.41782"
       style="fill:#929497;stroke-width:0.99997753" /><rect
       id="rect14"
       height="2.0021079"
       width="26.991453"
       transform="rotate(-123.97768)"
       y="91.717438"
       x="-164.39183"
       style="fill:#929497;stroke-width:1.00005388" /><rect
       id="rect16"
       height="2.0000305"
       width="20.344309"
       transform="rotate(-170.29372)"
       y="-34.897858"
       x="-163.80272"
       style="fill:#929497;stroke-width:1.00001526" /><rect
       id="rect18"
       height="14.627334"
       width="2.0009086"
       transform="rotate(-131.91524)"
       y="58.18692"
       x="-147.88603"
       style="fill:#929497;stroke-width:0.9999544" /><line
       id="line20"
       y2="20.036308"
       x2="152.46251"
       y1="29.845314"
       x1="170.0585"
       style="fill:none" /><rect
       id="rect22"
       height="2.0010738"
       width="20.148745"
       transform="rotate(-150.86415)"
       y="55.729916"
       x="-163.07201"
       style="fill:#929497;stroke-width:1.00003695" /><rect
       id="rect24"
       height="14.374648"
       width="2.0009511"
       transform="rotate(161.59042)"
       y="-81.872948"
       x="-152.77808"
       style="fill:#929497;stroke-width:0.99997556" /><rect
       id="rect26"
       height="21.928442"
       width="2.0009489"
       transform="rotate(-113.59132)"
       y="142.48759"
       x="-96.915733"
       style="fill:#929497;stroke-width:0.99997449" /><rect
       id="rect28"
       height="18.491373"
       width="2.0029321"
       transform="rotate(-148.6196)"
       y="57.544361"
       x="-189.83414"
       style="fill:#929497;stroke-width:0.99996608" /><rect
       id="rect30"
       height="2.0009973"
       width="14.284981"
       transform="rotate(-152.3997)"
       y="41.83033"
       x="-208.49649"
       style="fill:#929497;stroke-width:0.99999869" /><rect
       id="rect32"
       height="2.0009422"
       width="19.177446"
       transform="rotate(-112.73137)"
       y="155.10533"
       x="-140.88383"
       style="fill:#929497;stroke-width:0.99997115" /><rect
       id="rect34"
       height="20.270878"
       width="4.0021729"
       transform="rotate(179.46716)"
       y="-51.7001"
       x="-171.7767"
       style="fill:#58595b;stroke-width:1.00004327" /><rect
       id="rect36"
       height="20.827833"
       width="4.0029678"
       transform="rotate(-120.88416)"
       y="99.557076"
       x="-132.40199"
       style="fill:#58595b;stroke-width:0.99999207" /><rect
       id="rect38"
       height="4.0019259"
       width="20.514622"
       transform="rotate(-178.0458)"
       y="-46.284924"
       x="-192.37354"
       style="fill:#58595b;stroke-width:0.99998158" /><path
       id="path40"
       d="m 179.8275,48.109306 c 1.107,5.291 -2.282,10.475 -7.57,11.584 -5.29,1.106 -10.478,-2.283 -11.584,-7.573 -1.108,-5.29 2.281,-10.476 7.57,-11.582 5.29,-1.109 10.476,2.282 11.584,7.571"
       style="fill:#eb008b"
       inkscape:connector-curvature="0" /><path
       id="path42"
       d="m 174.9395,28.823306 c 0.564,2.696 -1.163,5.339 -3.858,5.903 -2.695,0.563 -5.339,-1.163 -5.903,-3.858 -0.563,-2.696 1.164,-5.339 3.859,-5.903 2.695,-0.564 5.339,1.162 5.902,3.858"
       style="fill:#58595b"
       inkscape:connector-curvature="0" /><path
       id="path44"
       d="m 157.2585,59.786306 c 0.562,2.696 -1.163,5.339 -3.859,5.903 -2.695,0.563 -5.338,-1.163 -5.903,-3.858 -0.562,-2.696 1.163,-5.338 3.859,-5.904 2.696,-0.563 5.338,1.163 5.903,3.859"
       style="fill:#58595b"
       inkscape:connector-curvature="0" /><path
       id="path46"
       d="m 195.1745,49.890306 c 0.562,2.695 -1.164,5.339 -3.86,5.902 -2.696,0.564 -5.338,-1.164 -5.903,-3.858 -0.562,-2.696 1.163,-5.339 3.858,-5.904 2.697,-0.565 5.339,1.164 5.905,3.86"
       style="fill:#58595b"
       inkscape:connector-curvature="0" /><path
       id="path48"
       d="m 204.4165,32.467306 c 0.402,1.926 -0.83,3.813 -2.756,4.217 -1.926,0.402 -3.814,-0.831 -4.217,-2.757 -0.404,-1.926 0.831,-3.812 2.756,-4.216 1.928,-0.402 3.814,0.83 4.217,2.756"
       style="fill:#929497"
       inkscape:connector-curvature="0" /><path
       id="path50"
       d="m 207.7115,57.636306 c 0.401,1.927 -0.832,3.813 -2.757,4.218 -1.927,0.402 -3.813,-0.831 -4.218,-2.758 -0.404,-1.926 0.832,-3.812 2.757,-4.216 1.927,-0.402 3.813,0.831 4.218,2.756"
       style="fill:#929497"
       inkscape:connector-curvature="0" /><path
       id="path52"
       d="m 202.1545,69.701306 c 0.402,1.925 -0.83,3.812 -2.757,4.216 -1.925,0.403 -3.813,-0.831 -4.216,-2.756 -0.403,-1.927 0.83,-3.812 2.756,-4.216 1.926,-0.404 3.815,0.831 4.217,2.756"
       style="fill:#929497"
       inkscape:connector-curvature="0" /><path
       id="path54"
       d="m 193.6615,20.583306 c 0.403,1.926 -0.83,3.813 -2.756,4.216 -1.926,0.403 -3.813,-0.831 -4.218,-2.756 -0.405,-1.925 0.832,-3.812 2.758,-4.216 1.925,-0.404 3.814,0.832 4.216,2.756"
       style="fill:#929497"
       inkscape:connector-curvature="0" /><path
       id="path56"
       d="m 168.6395,14.775306 c 0.402,1.925 -0.83,3.812 -2.756,4.215 -1.926,0.404 -3.814,-0.831 -4.218,-2.756 -0.404,-1.925 0.832,-3.812 2.757,-4.215 1.926,-0.404 3.814,0.83 4.217,2.756"
       style="fill:#929497"
       inkscape:connector-curvature="0" /><path
       id="path58"
       d="m 155.9465,19.306306 c 0.403,1.926 -0.83,3.812 -2.756,4.216 -1.926,0.402 -3.812,-0.831 -4.218,-2.756 -0.403,-1.927 0.832,-3.813 2.758,-4.218 1.925,-0.401 3.815,0.832 4.216,2.758"
       style="fill:#929497"
       inkscape:connector-curvature="0" /><path
       id="path60"
       d="m 139.5345,56.910306 c 0.403,1.925 -0.83,3.814 -2.755,4.216 -1.926,0.403 -3.813,-0.83 -4.218,-2.755 -0.403,-1.926 0.831,-3.812 2.757,-4.217 1.926,-0.404 3.814,0.831 4.216,2.756"
       style="fill:#929497"
       inkscape:connector-curvature="0" /><path
       id="path62"
       d="m 145.4435,69.605306 c 0.402,1.925 -0.831,3.812 -2.757,4.217 -1.926,0.403 -3.812,-0.832 -4.217,-2.757 -0.403,-1.927 0.831,-3.813 2.757,-4.216 1.926,-0.404 3.814,0.83 4.217,2.756"
       style="fill:#929497"
       inkscape:connector-curvature="0" /><path
       id="path64"
       d="m 157.8865,80.539306 c 0.401,1.925 -0.831,3.812 -2.757,4.216 -1.927,0.404 -3.813,-0.831 -4.219,-2.756 -0.401,-1.927 0.832,-3.812 2.759,-4.216 1.926,-0.403 3.814,0.831 4.217,2.756"
       style="fill:#929497"
       inkscape:connector-curvature="0" /><path
       id="path164"
       d="m 144.1755,30.660306 c 0.402,1.925 -0.831,3.812 -2.756,4.215 -1.927,0.404 -3.814,-0.83 -4.219,-2.755 -0.402,-1.926 0.831,-3.812 2.758,-4.216 1.926,-0.404 3.812,0.831 4.217,2.756"
       style="fill:#929497"
       inkscape:connector-curvature="0" /><path
       id="path166"
       d="m 172.7035,84.292306 c 0.402,1.926 -0.83,3.813 -2.757,4.217 -1.926,0.404 -3.812,-0.83 -4.217,-2.757 -0.403,-1.925 0.831,-3.812 2.757,-4.216 1.926,-0.403 3.815,0.832 4.217,2.756"
       style="fill:#929497"
       inkscape:connector-curvature="0" /><path
       id="path168"
       d="m 191.8065,79.295306 c 0.403,1.925 -0.83,3.812 -2.756,4.216 -1.926,0.404 -3.814,-0.83 -4.218,-2.756 -0.403,-1.927 0.832,-3.812 2.758,-4.217 1.926,-0.402 3.813,0.831 4.216,2.757"
       style="fill:#929497"
       inkscape:connector-curvature="0" /><path
       id="path170"
       d="m 182.5915,15.654306 c 0.402,1.926 -0.83,3.812 -2.756,4.216 -1.927,0.403 -3.813,-0.831 -4.218,-2.756 -0.402,-1.925 0.831,-3.813 2.758,-4.216 1.926,-0.404 3.813,0.83 4.216,2.756"
       style="fill:#929497"
       inkscape:connector-curvature="0" /><path
       id="path172"
       d="m 139.0305,42.828306 c 0.403,1.926 -0.83,3.813 -2.756,4.216 -1.926,0.403 -3.812,-0.831 -4.217,-2.756 -0.404,-1.926 0.831,-3.812 2.757,-4.216 1.926,-0.404 3.814,0.831 4.216,2.756"
       style="fill:#929497"
       inkscape:connector-curvature="0" /><path
       id="path174"
       d="m 208.3975,44.480306 c 0.403,1.925 -0.83,3.812 -2.755,4.216 -1.928,0.403 -3.815,-0.83 -4.219,-2.756 -0.403,-1.927 0.832,-3.813 2.758,-4.216 1.926,-0.404 3.813,0.829 4.216,2.756"
       style="fill:#929497"
       inkscape:connector-curvature="0" /></g></g></g>
</svg>