<?xml version="1.0" encoding="UTF-8" standalone="no"?>
<svg
   xmlns:dc="http://purl.org/dc/elements/1.1/"
   xmlns:cc="http://creativecommons.org/ns#"
   xmlns:rdf="http://www.w3.org/1999/02/22-rdf-syntax-ns#"
   xmlns:svg="http://www.w3.org/2000/svg"
   xmlns="http://www.w3.org/2000/svg"
   height="73.226082"
   width="115.37"
   version="1.1"
   viewBox="0 0 115.37 73.226084"
   data-name="Ebene 1"
   id="Ebene_1">
  <metadata
     id="metadata120">
    <rdf:RDF>
      <cc:Work
         rdf:about="">
        <dc:format>image/svg+xml</dc:format>
        <dc:type
           rdf:resource="http://purl.org/dc/dcmitype/StillImage" />
        <dc:title>denbi_cloud_logo</dc:title>
      </cc:Work>
    </rdf:RDF>
  </metadata>
  <defs
     id="defs87">
    <style
       id="style85">.cls-1{fill:#929292;}.cls-2{fill:#005aa9;}.cls-3{fill:#00adee;}.cls-4{fill:#565555;}.cls-5{fill:none;stroke:#565555;stroke-miterlimit:10;stroke-width:3px;}.cls-6{fill:#eb008b;}</style>
  </defs>
  <title
     id="title89">denbi_cloud_logo</title>
  <path
     style="fill:#929292"
     id="path91"
     d="m 93.16,28.726084 h -8.75 a 31.09,31.09 0 0 0 -62,0 h -0.16 a 22.25,22.25 0 0 0 0,44.5 h 70.87 a 22.25,22.25 0 0 0 0,-44.5 z m 0,40.14 H 24.07 a 11.23,11.23 0 0 1 -0.71,-20.7 5.5,5.5 0 1 0 -0.72,-3.63 14.83,14.83 0 0 0 -8.39,19.19 14.57,14.57 0 0 0 2.51,4.22 17.88,17.88 0 0 1 5.49,-34.87 h 26.1 a 5.5,5.5 0 1 0 0,-4.38 H 26.79 a 26.7,26.7 0 0 1 53.23,0 c 0.07,0.72 0.1,1.45 0.1,2.22 a 16.57,16.57 0 0 1 -0.1,2.23 26.68,26.68 0 0 1 -21.77,24.08 5.49,5.49 0 0 0 -9.68,0 5.36,5.36 0 0 0 -0.65,2.6 5.49,5.49 0 0 0 10.68,1.78 31.16,31.16 0 0 0 25.82,-28.46 h 8.75 a 17.88,17.88 0 1 1 0,35.75 v 0 z m -66.21,-23.58 a 1.12,1.12 0 1 1 1.12,1.11 1.12,1.12 0 0 1 -1.12,-1.11 z m 25.3,-14.47 a 1.11,1.11 0 1 1 1.11,1.11 1.1,1.1 0 0 1 -1.11,-1 z m 2.25,28.91 a 1.125,1.125 0 0 1 -2.25,0 1.12,1.12 0 0 1 2.23,0 v 0 z"
     class="cls-1" />
  <path
     style="fill:#565555"
     id="path103"
     d="m 58.83,29.636084 a 5.56,5.56 0 1 1 -6.58,-4.27 v 0 a 5.56,5.56 0 0 1 6.55,4.28"
     class="cls-4" />
  <path
     style="fill:#565555"
     id="path105"
     d="m 58.83,58.596084 a 5.56,5.56 0 1 1 -6.58,-4.31 v 0 a 5.56,5.56 0 0 1 6.55,4.29"
     class="cls-4" />
  <path
     style="fill:#565555"
     id="path107"
     d="m 33.47,44.126084 a 5.56,5.56 0 1 1 -6.58,-4.3 v 0 a 5.56,5.56 0 0 1 6.55,4.3"
     class="cls-4" />
  <line
     style="fill:none;stroke:#565555;stroke-width:3px;stroke-miterlimit:10"
     id="line109"
     y2="45.686085"
     x2="45.190002"
     y1="59.746086"
     x1="53.389999"
     class="cls-5" />
  <line
     style="fill:none;stroke:#565555;stroke-width:3px;stroke-miterlimit:10"
     id="line111"
     y2="45.286087"
     x2="45.179993"
     y1="31.926085"
     x1="53.389999"
     class="cls-5" />
  <line
     style="fill:none;stroke:#565555;stroke-width:3px;stroke-miterlimit:10"
     id="line113"
     y2="45.286087"
     x2="45.179993"
     y1="45.286087"
     x1="28.070007"
     class="cls-5" />
  <path
     style="fill:#eb008b"
     id="path115"
     d="m 52.81,43.666084 a 7.79,7.79 0 1 1 -9.23,-6 v 0 a 7.8,7.8 0 0 1 9.18,6"
     class="cls-6" />
</svg>
