<?xml version="1.0" encoding="iso-8859-1"?>
<!-- Generator: Adobe Illustrator 23.0.2, SVG Export Plug-In . SVG Version: 6.00 Build 0)  -->
<svg version="1.1" id="Ebene_1" xmlns="http://www.w3.org/2000/svg" xmlns:xlink="http://www.w3.org/1999/xlink" x="0px" y="0px"
	 viewBox="0 0 28.346 27.737" style="enable-background:new 0 0 28.346 27.737;" xml:space="preserve">
<g style="opacity:0.98;">
	<path style="fill:#ED1944;" d="M25.713,0H2.641C1.188,0.004,0.011,1.181,0.007,2.633v6.205h6.4V7.824
		C6.406,7.039,7.042,6.402,7.827,6.4c0.002,0,0.003,0,0.005,0h12.691c0.785-0.001,1.423,0.634,1.424,1.419c0,0.002,0,0.003,0,0.005
		v1.014h6.4V2.633C28.342,1.181,27.166,0.004,25.713,0z"/>
	<path style="fill:#ED1944;" d="M21.944,19.913c0,0.786-0.638,1.424-1.424,1.424H7.831c-0.786,0-1.424-0.638-1.424-1.424v-1.014H0
		v6.205c0.004,1.453,1.181,2.629,2.633,2.633h23.073c1.453-0.004,2.629-1.181,2.633-2.633v-6.205h-6.395V19.913z"/>
	<rect x="0.005" y="10.67" style="fill:#ED1944;" width="6.4" height="6.4"/>
	<rect x="21.946" y="10.67" style="fill:#ED1944;" width="6.4" height="6.4"/>
</g>
</svg>
