<?xml version="1.0" encoding="iso-8859-1"?>
<!-- Generator: Adobe Illustrator 23.0.2, SVG Export Plug-In . SVG Version: 6.00 Build 0)  -->
<svg version="1.1" id="Ebene_1" xmlns="http://www.w3.org/2000/svg" xmlns:xlink="http://www.w3.org/1999/xlink" x="0px" y="0px"
	 viewBox="0 0 120.695 141.732" style="enable-background:new 0 0 120.695 141.732;" xml:space="preserve">
<g>
	<g>
		<polygon style="fill:#005AA9;" points="9.836,75.621 9.925,79.124 17.757,87.432 10.124,86.903 10.214,90.399 21.278,91.044 
			21.195,87.807 		"/>
	</g>
	<g>
		<polygon style="fill:#005AA9;" points="23.106,106.005 23.196,109.502 34.184,115.786 34.095,112.29 		"/>
	</g>
	<g>
		<path style="fill:#005AA9;" d="M82.797,26.372c0.35-0.011,0.747-0.132,1.192-0.371l1.53-0.819
			c0.439-0.235,0.672-0.451,0.687-0.636c0.021-0.188-0.134-0.373-0.468-0.553l-0.961-0.517L80.812,25.6l0.961,0.517
			C82.108,26.296,82.447,26.382,82.797,26.372z"/>
	</g>
	<g>
		<path style="fill:#005AA9;" d="M120.582,32.641L61.739,0L0,36.419L58.842,69.06l0.113,72.672l61.739-36.419L120.582,32.641z
			 M103.634,31.634l-1.842,0.987l-3.516-1.889l-3.414,1.829l2.793,1.501l-1.842,0.987l-2.793-1.501l-3.965,2.123l3.516,1.889
			l-1.842,0.987l-5.55-2.982l12.906-6.912L103.634,31.634z M93.756,26.326l-11.063,5.925l3.351,1.801l-1.842,0.987l-5.385-2.894
			l12.906-6.912L93.756,26.326z M87.58,23.007c1.009,0.542,1.498,1.095,1.463,1.655c-0.035,0.566-0.575,1.123-1.623,1.684
			l-1.27,0.68c-1.043,0.559-2.086,0.85-3.136,0.865c-1.05,0.021-2.079-0.243-3.088-0.785l-0.961-0.517l-5.251,2.812l-2.034-1.093
			l12.906-6.912L87.58,23.007z M77.538,17.61l-7.947,5.641l0.037,0.02l10.533-4.251l2.905,1.561L70.16,27.492l-1.922-1.033
			l9.772-5.233l-0.037-0.02l-11.253,4.437L65.02,24.73l8.29-6.03l-0.037-0.02l-9.772,5.233l-1.774-0.953l12.906-6.912L77.538,17.61z
			 M73.114,15.232l-12.906,6.912l-2.034-1.093l12.906-6.912L73.114,15.232z M54.001,15.525l0.736-0.394l1.922,1.033l-0.884,0.473
			c-0.836,0.448-0.899,0.863-0.198,1.24c0.345,0.186,0.706,0.272,1.093,0.258c0.382-0.011,0.8-0.138,1.255-0.382
			c0.54-0.289,0.889-0.613,1.057-0.965c0.163-0.355,0.199-0.864,0.112-1.53c-0.098-0.848-0.015-1.519,0.243-2.016
			c0.269-0.497,0.771-0.949,1.523-1.351c1.016-0.544,2.071-0.83,3.142-0.851c1.082-0.021,2.116,0.234,3.099,0.762
			c0.977,0.525,1.435,1.072,1.373,1.641c-0.057,0.566-0.612,1.131-1.654,1.69l-0.535,0.286l-1.928-1.036l0.662-0.354
			c0.445-0.238,0.683-0.457,0.714-0.656c0.026-0.202-0.123-0.39-0.458-0.57c-0.68-0.365-1.427-0.33-2.253,0.113
			c-0.466,0.249-0.778,0.553-0.925,0.906c-0.158,0.352-0.188,0.864-0.101,1.53c0.114,0.851,0.031,1.528-0.254,2.022
			c-0.28,0.492-0.824,0.96-1.634,1.394c-1.059,0.567-2.134,0.858-3.221,0.882c-1.092,0.021-2.132-0.237-3.136-0.776
			c-0.983-0.528-1.451-1.081-1.399-1.649C52.409,16.652,52.958,16.084,54.001,15.525z M21.605,38.095L48.76,18.332l5.093,2.737
			L32.319,36.152l0.09,0.049l28.146-11.529l4.636,2.491L28.307,41.697L21.605,38.095z M56.527,56.863l-4.774-2.566l24.244-12.984
			l-0.09-0.049L47.993,52.276l-4.222-2.269l20.575-14.956L64.25,35L40.006,47.984l-4.403-2.366l32.02-17.149l7.201,3.87
			L55.117,46.342l0.096,0.051l26.134-10.549l7.201,3.87L56.527,56.863z M63.521,133.65l-0.096-61.905l52.592-31.023l0.097,61.905
			L63.521,133.65z"/>
	</g>
</g>
</svg>
