<?xml version="1.0" encoding="utf-8" ?>
<svg id="Ebene_1" data-name="Ebene 1" xmlns="http://www.w3.org/2000/svg" viewBox="0 0 425.2 74.24"><defs><style>.cls-1{fill:#929292;}.cls-2{fill:#005aa9;}.cls-3{fill:#00adee;}.cls-4{fill:#565555;}.cls-5{fill:none;stroke:#565555;stroke-miterlimit:10;stroke-width:3px;}.cls-6{fill:#eb008b;}</style></defs><title>denbi_cloud_logo</title><path class="cls-1" d="M223.91,29h-8.75a31.09,31.09,0,0,0-62,0H153a22.25,22.25,0,0,0,0,44.5h70.87a22.25,22.25,0,0,0,0-44.5Zm0,40.14H154.82a11.23,11.23,0,0,1-.71-20.7,5.5,5.5,0,1,0-.72-3.63A14.83,14.83,0,0,0,145,64a14.57,14.57,0,0,0,2.51,4.22A17.88,17.88,0,0,1,153,33.35h26.1a5.5,5.5,0,1,0,0-4.38H157.54a26.7,26.7,0,0,1,53.23,0c.07.72.1,1.45.1,2.22a16.57,16.57,0,0,1-.1,2.23A26.68,26.68,0,0,1,189,57.5a5.49,5.49,0,0,0-9.68,0,5.36,5.36,0,0,0-.65,2.6,5.49,5.49,0,0,0,10.68,1.78,31.16,31.16,0,0,0,25.82-28.46h8.75a17.88,17.88,0,1,1,0,35.75h0ZM157.7,45.56a1.12,1.12,0,1,1,1.12,1.11A1.12,1.12,0,0,1,157.7,45.56ZM183,31.09a1.11,1.11,0,1,1,1.11,1.11,1.1,1.1,0,0,1-1.11-1ZM185.25,60A1.11,1.11,0,0,1,183,60a1.12,1.12,0,0,1,2.23,0h0Z"/><path class="cls-2" d="M51.75,59.84V7.48c0-4.79-2.14-6.94-6.94-6.94H32.46v11h4.08a2,2,0,0,1,2.22,1.72,2.09,2.09,0,0,1,0,.5V23c0,1.73.11,3.06.11,3.06h-.21s-3.67-6.33-15-6.33C9.9,19.73,0,30.45,0,47,0,63.11,9.08,74.24,23.17,74.24c11.94,0,16.24-8.47,16.24-8.47h.2v1.94c0,3.06,1.73,5.3,6.43,5.3H58V62.09H54a2,2,0,0,1-2.24-1.83A1.48,1.48,0,0,1,51.75,59.84ZM26,63.31c-7.66,0-12.87-6.43-12.87-16.32,0-10.31,5.93-16.13,13.07-16.13,8.68,0,12.87,8,12.87,16C39.1,58.42,32.76,63.31,26,63.31Z"/><path class="cls-3" d="M307.54,7.48V40.66c0,4.18.73,10.2.73,10.2h-.21s-3.16-6-6-10.2L274.58.54h-12v58.9a1.94,1.94,0,0,1-2.13,2.22h-8.9a46.17,46.17,0,0,1-10.27,11.41H269c4.91,0,6.94-2,6.94-6.94V33c0-4.2-.71-10.22-.71-10.22h.2A111.1,111.1,0,0,0,281.48,33L309,73.06H321V14.11a2,2,0,0,1,1.85-2.22h4.77V.54h-13.1C309.59.54,307.54,2.69,307.54,7.48Z"/><path class="cls-3" d="M379.38,34.94v-.2c4.45-2.22,8.78-7.45,8.78-15.57,0-11.94-9.38-18.68-22.45-18.68H334.39V11.87h6.68v54.2C341.07,71,343.2,73,348,73h18c13.47,0,25-6.53,25-21C391.05,44.63,387.27,37.29,379.38,34.94Zm-25-23.07h11.23c5.92,0,9,3.78,9,9s-3.16,9.29-8.78,9.29H354.4Zm12.67,49.82H356.65a2,2,0,0,1-2.22-1.85,2.41,2.41,0,0,1,0-.38V40.76h12.66c6.42,0,10.2,4.38,10.2,10.41S373.59,61.69,367.07,61.69Z"/><polygon class="cls-3" points="425.2 11.87 425.2 0.54 396.98 0.54 396.98 11.87 405.29 11.87 405.29 61.69 396.98 61.69 396.98 73.01 425.2 73.01 425.2 61.69 417.94 61.69 417.94 11.87 425.2 11.87"/><path class="cls-2" d="M124.83,61.61H86.35c-6.12-.67-8.68-4.18-9.59-12.38h35.93s.3-3.26.3-4.8c0-13.77-8.15-24.7-23.06-24.7C74.35,19.73,63.48,31,63.48,47c0,14.8,7.52,26.18,24.77,26.18h47L135,73A45.74,45.74,0,0,1,124.83,61.61ZM89.93,29.73c5.3,0,9.59,4.29,9.79,10.52H77.17C78.59,33.72,83.3,29.73,89.93,29.73Z"/><path class="cls-4" d="M189.58,29.91A5.56,5.56,0,1,1,183,25.64H183a5.56,5.56,0,0,1,6.55,4.28"/><path class="cls-4" d="M189.58,58.87A5.56,5.56,0,1,1,183,54.56h0a5.56,5.56,0,0,1,6.55,4.29"/><path class="cls-4" d="M164.22,44.4a5.56,5.56,0,1,1-6.58-4.3h0a5.56,5.56,0,0,1,6.55,4.3"/><line class="cls-5" x1="184.14" y1="60.02" x2="175.94" y2="45.96"/><line class="cls-5" x1="184.14" y1="32.2" x2="175.93" y2="45.56"/><line class="cls-5" x1="158.82" y1="45.56" x2="175.93" y2="45.56"/><path class="cls-6" d="M183.56,43.94a7.79,7.79,0,1,1-9.23-6h0a7.8,7.8,0,0,1,9.18,6"/></svg>
